# xmcd CD database file
#
# Track frame offsets:
#	150
#	21403
#	43390
#	65515
#	85416
#	106966
#	129160
#	150362
#	172141
#	193827
#	216317
#	238547
#	260716
#	282849
#	306506
#
# Disc length: 4316 seconds
#
# Revision: 0
# Processed by: cddbd v1.5.2PL0 Copyright (c) Steve Scherf et al.
# Submitted via: CDex 1.70beta2
#
DISCID=e210da0f
DTITLE=Rey Ruiz - Tesoros De Coleccion
DYEAR=1900
DGENRE=Salsa
TTITLE0=Amiga
TTITLE1=No Me Acostumbro
TTITLE2=Quedate Aqui
TTITLE3=Si Me Das Un Beso
TTITLE4=Luna Negra
TTITLE5=Mi Media Mitad
TTITLE6=Quien Lo Diria
TTITLE7=Si Te Preguntan
TTITLE8=Duele
TTITLE9=El Hombre De Tu Vida
TTITLE10=Ella
TTITLE11=El Rey Del Mundo
TTITLE12=Estamos Solos
TTITLE13=Jurame
TTITLE14=Mintiendo
EXTD=
EXTT0=
EXTT1=
EXTT2=
EXTT3=
EXTT4=
EXTT5=
EXTT6=
EXTT7=
EXTT8=
EXTT9=
EXTT10=
EXTT11=
EXTT12=
EXTT13=
EXTT14=
PLAYORDER=
